<svg xmlns="http://www.w3.org/2000/svg" viewBox="0 0 131.01 118.6">
  <g id="Layer_2" data-name="Layer 2">
    <g id="Atariesque">
      <path d="M128.11,3.33A9.92,9.92,0,0,0,120.21,0a9.65,9.65,0,0,0-7.71,3.33q-2.85,3.33-2.85,10V81.52L65,13.93c-1.25-2-2.47-3.89-3.64-5.71A27.61,27.61,0,0,0,57.9,3.76,13,13,0,0,0,54,1a12.77,12.77,0,0,0-5.35-1A13.37,13.37,0,0,0,41.2,2.23,12.53,12.53,0,0,0,36.27,8,24.92,24.92,0,0,0,35,16.82V66.19H9.77a9.77,9.77,0,0,0,0,19.54H35v19.58q0,6.48,3,9.89a10,10,0,0,0,7.9,3.4,10.08,10.08,0,0,0,7.82-3.36q3-3.36,3-9.93V85.73H87.83l12.51,19.18q1.88,2.75,3.76,5.36a27.47,27.47,0,0,0,4.06,4.58,14.36,14.36,0,0,0,4.7,2.85,16.54,16.54,0,0,0,5.63.9q12.51,0,12.52-15.1V13.3Q131,6.65,128.11,3.33ZM56.76,66.19V38.1L75.08,66.19Z"/>
    </g>
  </g>
</svg>